<?xml version="1.0" encoding="utf-8"?>
<!-- Generator: Adobe Illustrator 21.0.2, SVG Export Plug-In . SVG Version: 6.00 Build 0)  -->
<svg version="1.1" id="Layer_1" xmlns="http://www.w3.org/2000/svg" xmlns:xlink="http://www.w3.org/1999/xlink" x="0px" y="0px"
	 viewBox="0 0 210 180" style="enable-background:new 0 0 210 180;" xml:space="preserve">
<style type="text/css">
	.st0{clip-path:url(#SVGID_2_);}
	.st1{opacity:0.5;fill:#EAEEF8;enable-background:new    ;}
	.st2{fill:#EAEEF8;}
	.st3{fill:none;stroke:#DDDFEA;stroke-width:2;stroke-linecap:round;stroke-linejoin:round;}
	.st4{fill:none;stroke:#DDDFEA;stroke-linecap:round;stroke-linejoin:round;}
	.st5{fill:#FFFFFF;}
	.st6{fill:none;stroke:#FFFFFF;stroke-width:2;stroke-linecap:round;stroke-linejoin:round;}
	.st7{fill:#E44C45;}
	.st8{fill:#F47156;}
	.st9{fill:#3F5260;}
	.st10{fill:none;stroke:#E44C45;stroke-linecap:round;stroke-linejoin:round;}
	.st11{fill:none;stroke:#E44C45;stroke-width:2;stroke-linecap:round;stroke-linejoin:round;}
	.st12{fill:#FFFFFF;stroke:#FFFFFF;stroke-width:2;stroke-linecap:round;stroke-linejoin:round;}
	.st13{fill:#E44C45;stroke:#E44C45;stroke-width:2;stroke-linecap:round;stroke-linejoin:round;}
	.st14{fill:#E44C45;stroke:#E44C45;stroke-width:4;stroke-linecap:round;stroke-linejoin:round;}
	.st15{fill:#DDDFEA;stroke:#DDDFEA;stroke-linecap:round;stroke-linejoin:round;}
	.st16{fill:#F47156;stroke:#F47156;stroke-width:2;stroke-linecap:round;stroke-linejoin:round;}
	.st17{fill:none;stroke:#3F5260;stroke-linecap:round;stroke-linejoin:round;}
	.st18{fill:none;stroke:#0C99D5;stroke-width:2;stroke-linecap:round;stroke-linejoin:round;}
</style>
<title>Artboard 3</title>
<g>
	<defs>
		<circle id="SVGID_1_" cx="105.7" cy="99.6" r="93.8"/>
	</defs>
	<clipPath id="SVGID_2_">
		<use xlink:href="#SVGID_1_"  style="overflow:visible;"/>
	</clipPath>
	<g class="st0">
		<rect x="-17.6" y="-3.2" class="st1" width="251" height="132.5"/>
		<rect x="-13.2" y="109.7" class="st2" width="251" height="3.3"/>
		<rect x="2.1" y="92.3" class="st2" width="251" height="8.1"/>
		<rect x="-16.6" y="-43.2" class="st2" width="251" height="128.3"/>
		<line class="st3" x1="110.9" y1="72.6" x2="171.6" y2="72.6"/>
		<line class="st3" x1="36.6" y1="60.4" x2="68.4" y2="60.4"/>
		<line class="st4" x1="43.9" y1="56.3" x2="52.9" y2="56.3"/>
		<line class="st3" x1="11.4" y1="101.3" x2="75.4" y2="101.3"/>
		<line class="st4" x1="34.2" y1="97.2" x2="64.9" y2="97.2"/>
		<line class="st4" x1="136.5" y1="67.9" x2="163.4" y2="67.9"/>
		<path class="st5" d="M148.6,15.8L148.6,15.8C148.6,15.7,148.6,15.8,148.6,15.8z"/>
		<line class="st4" x1="95.9" y1="77.3" x2="187.3" y2="77.3"/>
	</g>
</g>
<line class="st3" x1="23.6" y1="136.5" x2="70.7" y2="136.5"/>
<path class="st5" d="M123.2,41.4h19.5c0,0-6.1-13.6,6.8-15.4c11.5-1.6,16.1,10.3,16.1,10.3s1.4-6.8,8.2-5.5S185.7,43,185.7,43h17"/>
<path class="st4" d="M123.6,38.8h19.5c0,0-6.1-13.6,6.8-15.4c11.5-1.6,16.1,10.3,16.1,10.3s1.4-6.8,8.2-5.5S186,39.3,186,39.3h17"/>
<line class="st6" x1="123.2" y1="42.3" x2="203.5" y2="42.3"/>
<path class="st5" d="M36.3,29.1h10.8c0,0-3.4-7.6,3.8-8.6c6.4-0.9,9,5.7,9,5.7s0.8-3.8,4.6-3.1S71,30,71,30h9.4"/>
<path class="st4" d="M36.7,27.5h10.8c0,0-3.4-7.6,3.8-8.6c6.4-0.9,9,5.7,9,5.7s0.8-3.8,4.6-3.1s6.5,5.8,6.5,5.8h9.4"/>
<line class="st6" x1="36.5" y1="30" x2="81.2" y2="30"/>
<line class="st3" x1="141.1" y1="136.5" x2="188.5" y2="136.5"/>
<path class="st7" d="M78.8,77.3c0,0-0.3,19-8.7,32.3c-8.6,13.8-15.3,12.7-15.3,17.3c0,4.3,29.7,16,41.3,3S78.8,77.3,78.8,77.3z"/>
<ellipse class="st2" cx="101.2" cy="153.7" rx="42.2" ry="6.4"/>
<path class="st8" d="M86.2,140.3c-5.7-4.9-12.4-58.4-6-71.9s25.5-22.3,35.8-21.6s32.2,23,35.1,29.7s-5.3,18.8-10.3,19.8
	c-2.2,0.6-4.4,0.9-6.7,1c0,0,2.7,24-2.3,41C129.7,145.3,94,147,86.2,140.3z"/>
<path class="st8" d="M81.8,125c0,0,1.8,12,4,18.2s5.3,10.8,6.3,9.9s0-20.5,0-20.5L81.8,125z"/>
<path class="st7" d="M134.8,124.7c0,0-1.6,12.3-3.8,18.5s-5.2,10.8-6.3,9.9s0.7-18.4,0.7-18.4L134.8,124.7z"/>
<path class="st7" d="M92.6,136.7c6.6,3.1,14,4,21.2,2.6c12-2.3,16.2-11.3,17-17.3c1.2-9.2-0.9-18.6-6-26.3l9.3,1.7
	c1.1,7.7,1.6,15.5,1.3,23.3c-0.3,13.3-4,21-4,21s-11.6,4-22,4c-11,0-16.8-2.4-16.8-2.4L92.6,136.7z"/>
<path class="st9" d="M113.3,69c0.6,0,1.1,0.5,1.1,1.1l0,0v2.4c0,0.6-0.5,1.1-1.1,1.1l0,0l0,0c-0.6,0-1.1-0.5-1.1-1.1l0,0v-2.4
	C112.2,69.5,112.7,69,113.3,69L113.3,69z"/>
<path class="st9" d="M138.1,69c0.6,0,1.1,0.5,1.1,1.1l0,0v2.4c0,0.6-0.5,1.1-1.1,1.1l0,0l0,0c-0.6,0-1.1-0.5-1.1-1.1c0,0,0,0,0,0
	v-2.4C137,69.5,137.5,69,138.1,69C138.1,69,138.1,69,138.1,69z"/>
<path class="st10" d="M96.8,82.5c0.4-0.7,1-1.2,1.7-1.6c0.9-0.4,1.9-0.6,2.8-0.4"/>
<path class="st10" d="M100.6,85.9c-0.3-0.7-0.4-1.5-0.3-2.3c0.2-1,0.7-1.8,1.3-2.6"/>
<path class="st11" d="M135.2,75c1.2,1.6,3.4,2,5,0.8c0.3-0.2,0.6-0.5,0.8-0.8"/>
<path class="st11" d="M116.2,75.5c-1.2-1.6-3.4-2-5-0.8c-0.3,0.2-0.6,0.5-0.8,0.8"/>
<polygon class="st12" points="100.2,78.1 101.7,81 104.4,79.6 "/>
<path class="st11" d="M96.2,76.5c0,0,5.5-0.2,9.2,3.5c1.6,1.7,2.7,3.8,3.2,6"/>
<polygon class="st13" points="65.6,119.7 60,119.3 59.6,124.5 "/>
<polygon class="st13" points="71.9,109.1 66.6,110.8 68.1,115.8 "/>
<polygon class="st13" points="76.6,96.7 71.8,99.6 74.5,104.1 "/>
<path class="st13" d="M109.7,91.6c3.8,1.9,7.8,3.5,12,4.5c3.2,0.9,6.4,1.5,9.7,1.9"/>
<path class="st4" d="M6,125.8c14.5,0,35.5,0.2,34.7,3c-0.5,1.8-12.4,4-12,7.2c0.5,4,13.8,8.6,23,5.8c6.7-2,4.2-8.3,13.3-17.8
	c2.3-2.4,10-10.4,22-12.2c2.8-0.4,5.7-0.5,8.5-0.2"/>
<path class="st7" d="M92.1,108.8c-0.9-2.6-3.7-4.1-5.4-3.6c-2.7,0.8-2.3,4.3-1.8,6.2c0,0.1,1.4,4.3,4.7,4.3c1,0,1.6-1.2,1.6-2.1
	c0.3,0.2,0.6,0.3,1,0.2c0.6-0.2,0.9-0.8,0.8-1.3c0,0,0,0,0,0C92.8,111.2,92.6,110,92.1,108.8z"/>
<path class="st14" d="M77.5,102c0,0,11.8,4.2,12.2,7"/>
<path class="st14" d="M133.9,102.8c0,0-11.8,4.2-12.2,7"/>
<path class="st4" d="M115.5,111.8c16.3,1.8,22.6,7.2,25.2,11.8c1.9,3.3,2.8,7.6,7.5,11.8c2.7,2.6,6.1,4.3,9.8,5
	c7.8,1.3,16.2-3,16-5.5c-0.4-3.9-24-7.9-24-10.5c0-1.5,5.2-3,12.5-3.2c7.5-0.2,27-0.2,40.5-0.2"/>
<path class="st15" d="M98,107.5c0,0-4.5,0.8-4,3.8s4.2,3.2,4.2,3.2S99.2,112,98,107.5z"/>
<line class="st4" x1="96.5" y1="109.5" x2="100.7" y2="109.5"/>
<line class="st4" x1="96.5" y1="112.8" x2="101" y2="112.8"/>
<path class="st15" d="M113.5,108c-0.8,1-1.2,2.1-1.2,3.4c0,1.8,0.5,4.1,1.8,3.6s3.5-1.4,3.5-3.2S115.5,108.4,113.5,108z"/>
<polygon class="st16" points="103.7,49.3 98.3,47.8 96.9,52.8 "/>
<polygon class="st16" points="91.8,57.5 86.2,57.3 86,62.6 "/>
<polygon class="st16" points="85.1,66.2 79.8,67.9 81.3,72.9 "/>
<path class="st7" d="M119.9,109.4c0.9-2.6,3.7-4.1,5.4-3.6c2.7,0.8,2.3,4.3,1.8,6.2c0,0.1-1.4,4.3-4.7,4.3c-1,0-1.6-1.2-1.6-2.1
	c-0.3,0.2-0.6,0.3-1,0.2c-0.6-0.1-1-0.7-0.8-1.3c0,0,0,0,0-0.1C119,111.7,119.3,110.5,119.9,109.4z"/>
<line class="st17" x1="113.8" y1="109.5" x2="112.8" y2="111.2"/>
<line class="st17" x1="114.3" y1="111.8" x2="113.3" y2="113.6"/>
<line class="st18" x1="138.6" y1="54.7" x2="140.5" y2="52.8"/>
<line class="st18" x1="143.1" y1="56" x2="145.8" y2="54.8"/>
<path class="st4" d="M137.4,106.1c1.7-1,2.4-3.2,1.4-4.9c-0.2-0.3-0.4-0.7-0.7-0.9"/>
<path class="st4" d="M139,107.9c2.7-1.5,3.6-4.9,2.1-7.6c-0.3-0.5-0.7-1-1.1-1.4"/>
<path class="st10" d="M85.2,116.2c0.6,1.9,2.7,2.9,4.5,2.3c0.4-0.1,0.7-0.3,1-0.5"/>
<path class="st10" d="M83.1,117.4c1,2.9,4.1,4.5,7,3.6c0.6-0.2,1.1-0.5,1.6-0.9"/>
<path class="st11" d="M110.4,64c1.2,1.6,3.4,2,5,0.8c0.3-0.2,0.6-0.5,0.8-0.8"/>
<path class="st7" d="M143.8,66.9c0,0,4.2,6.1,4.9,10.4s-3.5,13.2-7.4,16c-7.1,5-17.8,3.5-20.3,2.8s9.3,3.3,16.8,2.4
	c4.2-0.3,8.1-2.5,10.5-6c2.1-2.7,5-9.2,3.8-14.1C150.6,72.5,143.8,66.9,143.8,66.9z"/>
<path class="st10" d="M139.9,62.9c0,0,6.2,5.9,8.6,10.8"/>
</svg>
